<?xml version="1.0" encoding="UTF-8"?>
<svg id="Calque_1" xmlns="http://www.w3.org/2000/svg" version="1.1" viewBox="0 0 384.5 212.5">
  <!-- Generator: Adobe Illustrator 30.4.0, SVG Export Plug-In . SVG Version: 2.1.4 Build 226)  -->
  <defs>
    <style>
      .st0 {
        fill: #fff;
      }
    </style>
  </defs>
  <g>
    <path class="st0" d="M24.6,17.7H3.5V4.3h57.5v13.4h-21.1v60.6h-15.2V17.7h0Z"/>
    <path class="st0" d="M72.2,4.3h49v13.4h-33.8v23.5h29.7v13.1h-29.7v10.7h35.3v13.4h-50.5V4.3h0Z"/>
    <path class="st0" d="M191.5,78.4h-17.6l-12.2-18.7c-1.4.2-2.9.3-4.4.3h-5.2v18.4h-15.2V4.3h20.5c20.7,0,33.1,9.9,33.1,28s-5.1,18.8-14.3,23l15.4,23.1ZM156.9,46.7c12.4,0,17.9-3.9,17.9-14.4s-5.7-14.6-17.9-14.6h-4.8v29h4.8Z"/>
    <path class="st0" d="M258.4,78.4h-17.6l-12.2-18.7c-1.4.2-2.9.3-4.4.3h-5.2v18.4h-15.2V4.3h20.5c20.7,0,33.1,9.9,33.1,28s-5.1,18.8-14.3,23l15.4,23.1ZM223.7,46.7c12.4,0,17.9-3.9,17.9-14.4s-5.7-14.6-17.9-14.6h-4.8v29h4.8Z"/>
    <path class="st0" d="M270.6,4.3h49v13.4h-33.8v23.5h29.7v13.1h-29.7v10.7h35.3v13.4h-50.5V4.3h0Z"/>
    <path class="st0" d="M329.4,63.8l12.4-7.2c3.3,5.3,7.5,9.3,15,9.3s10.3-3.2,10.3-7.5-4.1-7.1-11.1-10.1l-3.8-1.6c-11-4.7-18.3-10.6-18.3-23s8.7-20.1,22.3-20.1,16.7,3.4,21.7,12.2l-11.9,7.6c-2.6-4.7-5.5-6.5-9.8-6.5s-7.3,2.8-7.3,6.5,2.8,6.4,9.4,9.3l3.8,1.6c13,5.6,20.2,11.2,20.2,24s-10.8,21.2-25.3,21.2c-14.1,0-23.3-6.8-27.7-15.6Z"/>
  </g>
  <g>
    <path class="st0" d="M172.2,94.3h7.7c7.7,0,13.3,5.1,13.3,12.6s-5.5,12.6-13.3,12.6h-7.7v-25.2ZM179.7,115c5.6,0,8.1-3.3,8.1-8s-2.6-8-8.1-8h-2.3v16.1h2.3Z"/>
    <path class="st0" d="M197.6,94.3h16.7v4.6h-11.5v8h10.1v4.5h-10.1v3.6h12v4.6h-17.2v-25.2h0Z"/>
  </g>
  <g>
    <path class="st0" d="M113.9,134.8l-4.5-3.1c-2.7-1.8-5.5-3.5-8.3-5.2-3.7-2.2-7.3-4.6-10.8-7-3.5-2.4-6.8-5.1-9.9-8-5.2-5-7.7-9.3-7.7-12.8s.2-1.6.5-3.6c.3-2,4.6-3.5,12.8-4.4,1.2-.1,2.6-.2,4.2-.2,4.5,0,9,.4,13.6,1.2,8.1,1.4,12.8,3.9,14.1,7.3.5,1.1,1.3,1.7,2.4,1.7s1.5-.3,2.1-.8c.5-.4.7-1,.7-1.6s0-.6-.2-1c-1.8-4.6-7.2-8-16.2-10.1-5.6-1.3-11.3-1.9-17.1-1.9s-2.5,0-3.6.1c-7.1.7-12.2,2.5-15.2,5.4-2.2,2.1-3.3,4.6-3.3,7.5s.3,2.9,1,5.7c.7,2.7,3.5,6.6,8.6,11.5,3.2,3,6.6,5.8,10.2,8.2s7.3,4.9,11.1,7.2c2.3,1.4,4.5,2.8,6.7,4.2l4.5,3.1c5,3.5,8.4,7.6,10.2,12.3.9,2.3,1.3,4.8,1.3,7.4s-.5,5.7-1.5,8.8c-2,5.8-5.5,11.2-10.5,16.2-5,5-10.5,9.4-16.7,13-6.2,3.6-12.1,6.2-17.8,7.6-2.1.5-3.9.8-5.5.8-2.5,0-4.3-.7-5.5-2-1-1.1-1.5-2.6-1.5-4.5s.5-4.3,1.5-7c2.5-6.2,6.4-12.6,11.6-19.2,4.7-5.9,8.9-11.1,14.2-16.3,1-1,1-2.6-.1-3.6-.9-.8-2.4-.8-3.3.1-5.6,5.5-10.8,11.3-15.6,17.4-5.3,6.7-9.2,13.2-11.8,19.6-1.3,3.4-1.9,6.5-1.9,9.1s.3,3.1,1,5.4c.7,2.2,2.7,3.9,5.9,5.1,1.6.5,3.4.8,5.3.8s4.5-.3,7.1-1c6.2-1.7,12.7-4.4,19.3-8.4s12.5-8.6,17.8-14.1,9-11.4,11.1-17.7c1.1-3.6,1.7-7,1.7-10.2s-.7-6.5-2.1-10.7c-1.4-4.2-4.8-8.4-10.3-12.5Z"/>
    <path class="st0" d="M190.7,143.2c.4.2.9.3,1.3.3,1.6,0,2.5-.8,2.6-2.5.1-2.1,1-4.7,2.6-7.9.3-.7.5-1.1.5-1.2-.2-.7-.6-1.3-1.1-1.7-.5-.3-.9-.4-1.4-.4-2,.2-3.7,2.6-5,7.1-.5,1.6-.7,2.9-.7,3.9,0,1.2.5,2,1.3,2.3Z"/>
    <path class="st0" d="M329,152.8c-.5-.4-1-.6-1.6-.6s-.2,0-.6,0c-.4,0-.7.5-1.1,1.3-1.1,2.7-3,5.7-5.7,9s-5.9,6.4-9.4,9.2c-3.6,2.8-7.2,4.8-10.9,5.9-1.4.4-2.8.6-4.2.6-2.1,0-4.1-.5-5.9-1.6-1.9-1.2-3.3-2.9-4.3-5.1-1.6-3.5-2.4-7.5-2.4-12.2s0-1.2,0-1.8c2.1,1,4.2,1.4,6.5,1.4s.9,0,2.1,0c1.3,0,2.9-.8,4.9-2.3,2.5-2.2,3.8-4.9,3.8-8.1s-.8-5.7-2.4-8.1c-1.7-2.6-4-4-7-4.2-2.4,0-4.9,1.5-7.5,4.6-2.1,2.7-3.7,6.2-4.6,10.3-.1.5-.2,1.1-.3,1.6-.2.2-.3.4-.5.7-1.8,4.6-4.6,10.2-8.3,16.9-5,8.9-9.1,13.5-12.3,13.7-1.2,0-2.2-.9-3-2.6-.8-1.8-1.4-4.1-1.9-7.1s-.8-6.1-.9-9.3-.3-6.2-.3-8.8c0-2.7-.1-4.5-.3-5.7-.5-4-1.7-7-3.5-8.9-1.3-1.4-2.8-2.1-4.6-2.1s-1.6.2-3.2.5c-1.5.4-3.6,2.2-6.2,5.6-2,2.7-3.7,5.6-5.2,8.6.1-1.8.2-3.5.3-5.2,0-1.3-.7-2-1.9-2s-1.3.3-2.1.8c-.8.5-1.2,1.4-1.2,2.5,0,.7,0,1.5-.1,2.3-.1.2-.2.4-.4.7-.5,1.6-1.6,4.4-3.3,8.3-1.7,4-12,21.6-20.6,21.7-6.3-.1-8.2-10.6-8.2-15.9s.4-10.8,1.2-13.2c0-.4.1-.7.1-1,0-.6-.2-1.2-.6-1.6-.6-.5-1.3-.8-2.2-.8h-.9c-.6.1-1.1.8-1.5,2.1-.1.2-.2.4-.4.6-1.1,2.7-3,5.7-5.7,9s-5.9,6.4-9.4,9.2c-3.6,2.8-7.2,4.8-10.9,5.9-1.4.4-2.8.6-4.2.6-2.1,0-4.1-.5-5.9-1.6-1.9-1.2-3.3-2.9-4.3-5.1-1.6-3.5-2.4-7.5-2.4-12.2s0-1.2,0-1.8c2.1,1,4.2,1.4,6.5,1.4s.9,0,2.1,0c1.3,0,2.9-.8,4.9-2.3,2.5-2.2,3.8-4.9,3.8-8.1s-.8-5.7-2.4-8.1c-1.7-2.6-4-4-7-4.2-2.4,0-4.9,1.5-7.5,4.6-2.1,2.7-3.7,6.2-4.6,10.3-.7,3-1,6-1,9.1s.1,3.2.4,5.9,1.3,5.9,3.2,9.3c1.9,3.4,4.6,5.8,8.2,7.1,2,.6,4,1,6.1,1s4.7-.5,7.9-1.6c3.1-1,6.5-3.1,10.2-6.2,3.7-3.1,6.9-6.5,9.6-10.3.5-.7,1-1.4,1.5-2.1,0,1.3-.1,2.7-.1,4.1,0,20.3,16,33.9,35.7.5-.1.5-.2,1-.3,1.5-.9,4.4-1.3,6.8-1.3,7.2,0,.9.3,1.5.9,1.9.6.4,1.2.6,1.8.6s.5,0,1.1-.1c.5,0,1-.6,1.4-1.7,4.2-13.3,8.9-23.1,14-29.5,1.7-2,3-3,4.1-3s2.5,1.8,3,5.4c.2,1.7.4,4.1.5,7.2.3,8.6,1.1,15.4,2.2,20.3,1.6,7,4.3,10.5,8.2,10.5h.6c2.8-.5,5.4-2,8-4.8,4.3-4.5,8.6-11.3,12.7-20.3,0,.8.1,1.8.2,2.9.2,2.8,1.3,5.9,3.2,9.3,1.9,3.4,4.6,5.8,8.2,7.1,2,.6,4,1,6.1,1s4.7-.5,7.8-1.6c3.1-1,6.5-3.1,10.2-6.2s6.9-6.5,9.7-10.3c2.8-3.8,4.8-7.4,6.2-10.9,0-.2.1-.4.1-.6,0-.4-.2-.7-.5-1ZM287.4,144.1c1.3-1.6,2.5-2.4,3.6-2.4s.6,0,1.2.2c.7.1,1.3.9,1.9,2.4.5,1.2.8,2.5.8,3.9s0,.8-.1,1.7c0,.9-.6,1.8-1.6,2.7-1.1.8-2.3,1.2-3.7,1.2s-1,0-2.1-.2c-1.1-.1-2.3-.6-3.7-1.5.9-3.4,2.1-6,3.7-8ZM148.1,144.1c1.4-1.6,2.5-2.4,3.6-2.4s.6,0,1.2.2c.7.1,1.3.9,1.9,2.4.6,1.2.8,2.5.8,3.9s0,.8-.1,1.7c0,.9-.6,1.8-1.6,2.7-1.1.8-2.4,1.2-3.7,1.2s-1,0-2-.2c-1.1-.1-2.3-.6-3.7-1.5.9-3.4,2.1-6,3.7-8Z"/>
  </g>
</svg>